<svg width="400" height="400" viewBox="0 0 400 400" fill="none" xmlns="http://www.w3.org/2000/svg">
  <path d="M200.5 345C276.991 345 339 282.991 339 206.5C339 130.009 276.991 68 200.5 68C124.009 68 62 130.009 62 206.5C62 282.991 124.009 345 200.5 345Z" fill="url(#paint0_radial_12_24)"/>
  <path d="M255 227.5C300.84 227.5 338 190.34 338 144.5C338 98.6604 300.84 61.5 255 61.5C209.16 61.5 172 98.6604 172 144.5C172 190.34 209.16 227.5 255 227.5Z" fill="url(#paint1_radial_12_24)"/>
  <path d="M137 180.5C182.84 180.5 220 143.34 220 97.5C220 51.6604 182.84 14.5 137 14.5C91.1604 14.5 54 51.6604 54 97.5C54 143.34 91.1604 180.5 137 180.5Z" fill="url(#paint2_radial_12_24)"/>
  <path d="M133 336.5C178.84 336.5 216 299.34 216 253.5C216 207.66 178.84 170.5 133 170.5C87.1604 170.5 50 207.66 50 253.5C50 299.34 87.1604 336.5 133 336.5Z" fill="url(#paint3_radial_12_24)"/>
  <defs>
    <radialGradient id="paint0_radial_12_24" cx="0" cy="0" r="1" gradientUnits="userSpaceOnUse" gradientTransform="translate(200.5 206.5) rotate(90) scale(138.5 138.5)">
      <stop stop-color="#6366F1" stop-opacity="0.65"/>
      <stop offset="1" stop-color="#8B5CF6" stop-opacity="0"/>
    </radialGradient>
    <radialGradient id="paint1_radial_12_24" cx="0" cy="0" r="1" gradientUnits="userSpaceOnUse" gradientTransform="translate(255 144.5) rotate(90) scale(83 83)">
      <stop stop-color="#3B82F6" stop-opacity="0.5"/>
      <stop offset="1" stop-color="#A855F7" stop-opacity="0"/>
    </radialGradient>
    <radialGradient id="paint2_radial_12_24" cx="0" cy="0" r="1" gradientUnits="userSpaceOnUse" gradientTransform="translate(137 97.5) rotate(90) scale(83 83)">
      <stop stop-color="#EC4899" stop-opacity="0.6"/>
      <stop offset="1" stop-color="#8B5CF6" stop-opacity="0"/>
    </radialGradient>
    <radialGradient id="paint3_radial_12_24" cx="0" cy="0" r="1" gradientUnits="userSpaceOnUse" gradientTransform="translate(133 253.5) rotate(90) scale(83 83)">
      <stop stop-color="#10B981" stop-opacity="0.6"/>
      <stop offset="1" stop-color="#3B82F6" stop-opacity="0"/>
    </radialGradient>
  </defs>
</svg> 