<svg width="1000" height="1000" viewBox="0 0 1000 1000" fill="none" xmlns="http://www.w3.org/2000/svg">
  <g opacity="0.15">
    <line x1="0" y1="50" x2="1000" y2="50" stroke="#6366F1" stroke-width="1"/>
    <line x1="0" y1="150" x2="1000" y2="150" stroke="#6366F1" stroke-width="1"/>
    <line x1="0" y1="250" x2="1000" y2="250" stroke="#6366F1" stroke-width="1"/>
    <line x1="0" y1="350" x2="1000" y2="350" stroke="#6366F1" stroke-width="1"/>
    <line x1="0" y1="450" x2="1000" y2="450" stroke="#6366F1" stroke-width="1"/>
    <line x1="0" y1="550" x2="1000" y2="550" stroke="#6366F1" stroke-width="1"/>
    <line x1="0" y1="650" x2="1000" y2="650" stroke="#6366F1" stroke-width="1"/>
    <line x1="0" y1="750" x2="1000" y2="750" stroke="#6366F1" stroke-width="1"/>
    <line x1="0" y1="850" x2="1000" y2="850" stroke="#6366F1" stroke-width="1"/>
    <line x1="0" y1="950" x2="1000" y2="950" stroke="#6366F1" stroke-width="1"/>
    
    <line x1="50" y1="0" x2="50" y2="1000" stroke="#6366F1" stroke-width="1"/>
    <line x1="150" y1="0" x2="150" y2="1000" stroke="#6366F1" stroke-width="1"/>
    <line x1="250" y1="0" x2="250" y2="1000" stroke="#6366F1" stroke-width="1"/>
    <line x1="350" y1="0" x2="350" y2="1000" stroke="#6366F1" stroke-width="1"/>
    <line x1="450" y1="0" x2="450" y2="1000" stroke="#6366F1" stroke-width="1"/>
    <line x1="550" y1="0" x2="550" y2="1000" stroke="#6366F1" stroke-width="1"/>
    <line x1="650" y1="0" x2="650" y2="1000" stroke="#6366F1" stroke-width="1"/>
    <line x1="750" y1="0" x2="750" y2="1000" stroke="#6366F1" stroke-width="1"/>
    <line x1="850" y1="0" x2="850" y2="1000" stroke="#6366F1" stroke-width="1"/>
    <line x1="950" y1="0" x2="950" y2="1000" stroke="#6366F1" stroke-width="1"/>
  </g>
  
  <g opacity="0.3">
    <line x1="0" y1="0" x2="1000" y2="1000" stroke="#A855F7" stroke-width="1" stroke-dasharray="5 5"/>
    <line x1="1000" y1="0" x2="0" y2="1000" stroke="#A855F7" stroke-width="1" stroke-dasharray="5 5"/>
    <line x1="500" y1="0" x2="500" y2="1000" stroke="#A855F7" stroke-width="1.5"/>
    <line x1="0" y1="500" x2="1000" y2="500" stroke="#A855F7" stroke-width="1.5"/>
  </g>
</svg> 